Coordinates
version=1
nRows=10
nColumns=40
inDegrees=yes

Units are S.I. units (second, meters, Newtons, ...)
If the header above contains a line with 'inDegrees', this indicates whether rotational values are in degrees (yes) or radians (no).

endheader
time	pelvis_tilt	pelvis_list	pelvis_rotation	pelvis_tx	pelvis_ty	pelvis_tz	hip_flexion_r	hip_adduction_r	hip_rotation_r	knee_angle_r	knee_angle_r_beta	ankle_angle_r	subtalar_angle_r	mtp_angle_r	hip_flexion_l	hip_adduction_l	hip_rotation_l	knee_angle_l	knee_angle_l_beta	ankle_angle_l	subtalar_angle_l	mtp_angle_l	lumbar_extension	lumbar_bending	lumbar_rotation	arm_flex_r	arm_add_r	arm_rot_r	elbow_flex_r	pro_sup_r	wrist_flex_r	wrist_dev_r	arm_flex_l	arm_add_l	arm_rot_l	elbow_flex_l	pro_sup_l	wrist_flex_l	wrist_dev_l
      4.40500000	    -31.75443917	     15.26454706	      1.25086913	     -2.05911855	      0.99178215	      0.31621357	      0.60736936	    -13.42957590	     -3.48509087	     21.98200885	      0.38365843	    -19.86785657	      0.00000000	      0.00000000	     75.98161192	      9.27233339	     -0.53317708	     54.90270571	      0.95823298	     11.24353769	      0.00000000	      0.00000000	      5.50228767	    -11.74431414	      1.91252916	     25.00105799	     -3.93710607	     24.93296031	    101.03670004	     88.12047585	      0.00000000	      0.00000000	    -44.40811345	    -25.81900142	    -24.32801913	     87.42912571	     88.37919734	      0.00000000	      0.00000000
      4.41000000	    -31.42819732	     14.80297186	      1.61990588	     -2.02843505	      0.99347000	      0.31586370	     -0.01737918	    -12.68630320	     -3.23253419	     24.14282084	      0.42137171	    -20.73412357	      0.00000000	      0.00000000	     75.07660307	      9.21398615	     -0.42683066	     50.94092136	      0.88908680	     11.99555531	      0.00000000	      0.00000000	      5.29478829	    -11.56143829	      1.65178223	     24.57855971	     -4.19748128	     24.97027333	    100.72991581	     88.12676036	      0.00000000	      0.00000000	    -44.05995972	    -25.92390979	    -24.52995969	     87.27375617	     88.38807417	      0.00000000	      0.00000000
      4.41500000	    -30.96285516	     14.73808713	      2.02025131	     -1.99745367	      0.99537152	      0.31546998	     -0.57368158	    -12.39045274	     -3.32193322	     26.82889200	      0.46825250	    -20.96903935	      0.00000000	      0.00000000	     73.81989202	      9.38928416	     -0.78348298	     46.82682199	      0.81728222	     12.55129719	      0.00000000	      0.00000000	      4.91629783	    -11.81953598	      1.50784046	     23.87936704	     -4.41363032	     24.69541473	    100.37398912	     88.22165782	      0.00000000	      0.00000000	    -43.37185583	    -26.32736510	    -24.34305017	     87.02618044	     88.43600276	      0.00000000	      0.00000000
      4.42000000	    -30.51571938	     14.17846868	      2.28514927	     -1.96684837	      0.99696671	      0.31535028	     -0.85445954	    -11.44756258	     -2.94023891	     29.81381466	      0.52034923	    -20.95160697	      0.00000000	      0.00000000	     72.55520457	      9.24325621	     -0.77400300	     43.01734784	      0.75079436	     12.92414165	      0.00000000	      0.00000000	      4.57503619	    -11.51218201	      1.33948222	     23.18031986	     -4.68656333	     24.47200548	     99.82958944	     88.22978164	      0.00000000	      0.00000000	    -42.50335486	    -26.53184408	    -24.12393707	     86.72673607	     88.42593626	      0.00000000	      0.00000000
      4.42500000	    -30.02945379	     13.57058044	      2.57655856	     -1.93626467	      0.99842503	      0.31518343	     -0.99501117	    -10.43730888	     -2.69428592	     33.10064192	      0.57771519	    -20.68691690	      0.00000000	      0.00000000	     71.18110305	      9.12737350	     -0.76162905	     39.41443072	      0.68791159	     13.12024727	      0.00000000	      0.00000000	      4.18872626	    -11.14809024	      1.12975022	     22.36979873	     -4.97597498	     24.14706478	     99.16419132	     88.23263914	      0.00000000	      0.00000000	    -41.42086303	    -26.77031257	    -23.73440810	     86.34806599	     88.41306949	      0.00000000	      0.00000000
      4.43000000	    -29.43708389	     12.67384212	      2.86117834	     -1.90578896	      0.99966753	      0.31494285	     -1.06593108	     -9.10963303	     -2.62666367	     36.56087785	      0.63810770	    -20.56703118	      0.00000000	      0.00000000	     69.74776638	      8.90040941	     -0.57063833	     36.32247793	      0.63394683	     13.33820798	      0.00000000	      0.00000000	      3.68980756	    -10.44472490	      0.69109833	     21.64734585	     -5.26711270	     23.97241543	     98.22903122	     88.19326874	      0.00000000	      0.00000000	    -40.29016626	    -26.75800496	    -23.43814575	     86.02526983	     88.38170029	      0.00000000	      0.00000000
      4.43500000	    -28.90490379	     12.27054949	      3.27241320	     -1.87526185	      1.00103033	      0.31429255	     -0.97587493	     -8.38223929	     -2.83246114	     40.25763276	      0.70262824	    -19.75565858	      0.00000000	      0.00000000	     68.16016596	      9.06929269	     -0.61448588	     33.07950444	      0.57734627	     13.10755344	      0.00000000	      0.00000000	      3.21663943	    -10.27058354	      0.47370076	     20.54241467	     -5.60551503	     23.34558097	     97.43112415	     88.23487749	      0.00000000	      0.00000000	    -38.66192890	    -27.14027703	    -22.54203852	     85.51175850	     88.40249656	      0.00000000	      0.00000000
      4.44000000	    -28.26077831	     11.86556368	      3.62929246	     -1.84459230	      1.00220906	      0.31378124	     -0.85629855	     -7.73147284	     -3.34859966	     44.06751471	      0.76912322	    -19.19330141	      0.00000000	      0.00000000	     66.50967473	      9.17301140	     -0.82473466	     30.42194035	      0.53096302	     12.86805154	      0.00000000	      0.00000000	      2.63968651	    -10.08377092	      0.31371563	     19.29862722	     -5.94313775	     22.59895757	     96.58887831	     88.26536013	      0.00000000	      0.00000000	    -36.87657643	    -27.60890576	    -21.43511712	     84.94791649	     88.39209145	      0.00000000	      0.00000000
      4.44500000	    -27.58877769	     11.34494753	      4.07720380	     -1.81411728	      1.00321578	      0.31287148	     -0.66640915	     -6.97395190	     -3.90061395	     47.90091052	      0.83602860	    -18.48414015	      0.00000000	      0.00000000	     64.85209201	      9.33650892	     -0.76137060	     28.21804799	      0.49249785	     12.60871301	      0.00000000	      0.00000000	      2.01193382	     -9.73803610	     -0.09572927	     18.10711157	     -6.26935144	     21.90126698	     95.54681284	     88.27152028	      0.00000000	      0.00000000	    -35.03023025	    -27.85379895	    -20.34915680	     84.43050369	     88.38882981	      0.00000000	      0.00000000
      4.45000000	    -26.88163629	     10.91513148	      4.57910814	     -1.78359607	      1.00410873	      0.31186691	     -0.42540770	     -6.38094716	     -4.64496959	     51.76306968	      0.90343600	    -17.67745953	      0.00000000	      0.00000000	     63.14529878	      9.57864197	     -0.74447113	     26.42319622	      0.46117177	     12.27847808	      0.00000000	      0.00000000	      1.33937420	     -9.48028359	     -0.48012172	     16.76385822	     -6.60814290	     21.04536248	     94.46329175	     88.27531311	      0.00000000	      0.00000000	    -32.95020319	    -28.18060757	    -19.03602733	     83.89466347	     88.37953856	      0.00000000	      0.00000000
